<?xml version="1.0" encoding="UTF-8"?><svg id="Layer_1" xmlns="http://www.w3.org/2000/svg" viewBox="0 0 117.91 117.91"><path d="M56.39,16.75h14.07l-1.98,12h1.2c1.06-1.54,2.54-3.33,4.43-5.35,1.89-2.02,4.39-3.8,7.47-5.33,3.08-1.53,6.92-2.29,11.52-2.29,5.98,0,11.04,1.51,15.21,4.53,4.16,3.02,7.12,7.37,8.87,13.06.28.92.52,1.87.72,2.85V11.79c0-6.51-5.28-11.79-11.79-11.79H27.89l-2.79,16.75h15.24l-1.88,11.57h-15.29l-6.78,40.72c-.45,2.8-.37,4.89.24,6.29.61,1.4,1.55,2.35,2.82,2.84,1.27.5,2.69.75,4.26.75,1.16,0,2.17-.08,3.04-.24.87-.16,1.56-.29,2.07-.39l.72,11.9c-.93.32-2.21.65-3.83.99-1.62.34-3.59.52-5.9.55-3.79.06-7.2-.61-10.24-2.02-3.04-1.41-5.31-3.6-6.82-6.55-1.51-2.96-1.9-6.67-1.16-11.13l7.21-43.71H0v77.81c0,6.51,5.28,11.79,11.79,11.79h27.65L56.39,16.75Z"/><path d="M10.72,16.75L13.49,0h-1.69C5.28,0,0,5.28,0,11.79v4.95h10.72Z"/><path d="M117.84,53.9c-1.32,8-3.79,14.85-7.42,20.55-3.63,5.7-8.02,10.09-13.18,13.16-5.16,3.07-10.72,4.6-16.7,4.6-4.5,0-8.05-.76-10.65-2.27-2.6-1.51-4.53-3.28-5.78-5.3-1.25-2.02-2.19-3.82-2.8-5.4h-.92l-6.45,38.66h52.18c6.51,0,11.79-5.28,11.79-11.79v-52.69c-.02.16-.05.31-.07.47Z"/><path d="M98.23,31.4c-2.51-2.25-5.93-3.37-10.27-3.37s-7.9,1.08-11.16,3.23c-3.26,2.15-5.94,5.16-8.05,9.01-2.1,3.86-3.57,8.35-4.41,13.49-.84,5.2-.84,9.77,0,13.69.84,3.92,2.51,6.98,5.04,9.18,2.52,2.2,5.86,3.3,10,3.3s8.08-1.15,11.33-3.45c3.24-2.3,5.94-5.42,8.07-9.37,2.14-3.95,3.64-8.4,4.51-13.35.77-4.88.75-9.27-.07-13.16-.82-3.89-2.48-6.96-4.99-9.2Z"/></svg>