<svg xmlns="http://www.w3.org/2000/svg" viewBox="0 0 444.19 117.91">
    <path
        d="M56.39,16.75h14.07l-1.98,12h1.2c1.06-1.54,2.54-3.33,4.43-5.35,1.89-2.02,4.39-3.8,7.47-5.33,3.08-1.53,6.92-2.29,11.52-2.29,5.98,0,11.04,1.51,15.21,4.53,4.16,3.02,7.12,7.37,8.87,13.06.28.92.52,1.87.72,2.85V11.79c0-6.51-5.28-11.79-11.79-11.79H27.89l-2.79,16.75h15.24l-1.88,11.57h-15.29l-6.78,40.72c-.45,2.8-.37,4.89.24,6.29.61,1.4,1.55,2.35,2.82,2.84,1.27.5,2.69.75,4.26.75,1.16,0,2.17-.08,3.04-.24.87-.16,1.56-.29,2.07-.39l.72,11.9c-.93.32-2.21.65-3.83.99-1.62.34-3.59.52-5.9.55-3.79.06-7.2-.61-10.24-2.02-3.04-1.41-5.31-3.6-6.82-6.55-1.51-2.96-1.9-6.67-1.16-11.13l7.21-43.71H0v77.81c0,6.51,5.28,11.79,11.79,11.79h27.65L56.39,16.75Z" />
    <path d="M10.72,16.75L13.49,0h-1.69C5.28,0,0,5.28,0,11.79v4.95h10.72Z" />
    <path
        d="M117.84,53.9c-1.32,8-3.79,14.85-7.42,20.55-3.63,5.7-8.02,10.09-13.18,13.16-5.16,3.07-10.72,4.6-16.7,4.6-4.5,0-8.05-.76-10.65-2.27-2.6-1.51-4.53-3.28-5.78-5.3-1.25-2.02-2.19-3.82-2.8-5.4h-.92l-6.45,38.66h52.18c6.51,0,11.79-5.28,11.79-11.79v-52.69c-.02.16-.05.31-.07.47Z" />
    <path
        d="M98.23,31.4c-2.51-2.25-5.93-3.37-10.27-3.37s-7.9,1.08-11.16,3.23c-3.26,2.15-5.94,5.16-8.05,9.01-2.1,3.86-3.57,8.35-4.41,13.49-.84,5.2-.84,9.77,0,13.69.84,3.92,2.51,6.98,5.04,9.18,2.52,2.2,5.86,3.3,10,3.3s8.08-1.15,11.33-3.45c3.24-2.3,5.94-5.42,8.07-9.37,2.14-3.95,3.64-8.4,4.51-13.35.77-4.88.75-9.27-.07-13.16-.82-3.89-2.48-6.96-4.99-9.2Z" />
    <path
        d="M176.55,42.24v6.15h-21.5v-6.15h21.5ZM160.81,32.81h7.66v37.24c0,1.49.22,2.6.67,3.34s1.02,1.25,1.73,1.51,1.48.4,2.32.4c.62,0,1.15-.04,1.61-.13s.82-.15,1.08-.21l1.38,6.33c-.44.17-1.08.35-1.9.53-.82.18-1.85.28-3.08.29-2.02.03-3.9-.32-5.64-1.08-1.74-.75-3.15-1.91-4.23-3.49-1.08-1.57-1.61-3.54-1.61-5.92v-38.83Z" />
    <path
        d="M196.46,82.48c-2.5,0-4.75-.47-6.77-1.4s-3.61-2.29-4.78-4.06-1.76-3.96-1.76-6.54c0-2.22.43-4.05,1.28-5.48.85-1.44,2.01-2.57,3.46-3.41,1.45-.84,3.08-1.47,4.87-1.9,1.79-.43,3.62-.75,5.48-.97,2.36-.27,4.27-.5,5.74-.68,1.47-.18,2.54-.47,3.2-.88s1-1.08,1-2v-.18c0-2.24-.63-3.97-1.88-5.2-1.26-1.23-3.12-1.85-5.6-1.85s-4.61.57-6.09,1.7c-1.48,1.14-2.5,2.4-3.06,3.78l-7.2-1.64c.85-2.39,2.11-4.33,3.75-5.8s3.55-2.55,5.7-3.23c2.15-.67,4.42-1.01,6.79-1.01,1.57,0,3.24.18,5.01.55,1.77.37,3.43,1.04,4.97,2.01,1.55.97,2.81,2.36,3.81,4.16.99,1.8,1.49,4.14,1.49,7.01v26.14h-7.48v-5.38h-.31c-.5.99-1.24,1.96-2.23,2.92-.99.96-2.26,1.75-3.82,2.38-1.56.63-3.42.95-5.59.95ZM198.13,76.33c2.12,0,3.93-.42,5.45-1.26,1.51-.84,2.67-1.94,3.46-3.29s1.19-2.81,1.19-4.37v-5.07c-.27.27-.8.53-1.58.76s-1.66.43-2.65.59c-.99.16-1.96.31-2.9.44-.94.13-1.73.24-2.36.32-1.49.19-2.84.5-4.06.95-1.22.44-2.2,1.08-2.92,1.91-.73.83-1.09,1.93-1.09,3.29,0,1.9.7,3.33,2.1,4.29,1.4.97,3.19,1.45,5.36,1.45Z" />
    <path
        d="M229.96,36.17c-1.33,0-2.47-.45-3.42-1.35s-1.42-1.97-1.42-3.22.47-2.34,1.42-3.24,2.09-1.35,3.42-1.35,2.47.45,3.42,1.35,1.42,1.97,1.42,3.22-.47,2.35-1.42,3.24-2.09,1.35-3.42,1.35ZM226.09,81.61v-39.37h7.66v39.37h-7.66Z" />
    <path d="M251.72,29.12v52.49h-7.66V29.12h7.66Z" />
    <path
        d="M262.02,96.37v-54.13h7.48v6.38h.64c.44-.82,1.08-1.77,1.92-2.84.84-1.08,2-2.02,3.49-2.83s3.45-1.22,5.89-1.22c3.18,0,6.01.8,8.51,2.41,2.49,1.61,4.46,3.92,5.88,6.95,1.43,3.02,2.14,6.66,2.14,10.92s-.71,7.9-2.13,10.93c-1.42,3.03-3.37,5.37-5.84,7-2.48,1.63-5.31,2.45-8.48,2.45-2.39,0-4.34-.4-5.86-1.2-1.51-.8-2.7-1.74-3.55-2.82-.85-1.08-1.51-2.03-1.97-2.87h-.46v20.89h-7.66ZM269.53,61.93c0,2.77.4,5.19,1.2,7.28.8,2.08,1.96,3.71,3.49,4.88,1.52,1.17,3.38,1.76,5.59,1.76s4.2-.61,5.74-1.83,2.7-2.88,3.5-4.98,1.19-4.47,1.19-7.1-.39-4.93-1.17-7-1.94-3.7-3.49-4.9c-1.55-1.2-3.47-1.79-5.78-1.79s-4.1.57-5.63,1.72c-1.53,1.15-2.69,2.74-3.47,4.79-.79,2.05-1.18,4.44-1.18,7.18Z" />
    <path
        d="Mk306.56,81.61v-39.37h7.41v6.25h.41c.72-2.12,1.99-3.79,3.81-5.01,1.82-1.22,3.88-1.83,6.19-1.83.48,0,1.05.02,1.7.05.66.03,1.17.08,1.55.13v7.33c-.31-.09-.85-.18-1.64-.29-.79-.11-1.57-.17-2.36-.17-1.81,0-3.42.38-4.83,1.14-1.41.76-2.52,1.81-3.34,3.15s-1.23,2.87-1.23,4.57v24.04h-7.66Z" />
    <path
        d="M349.82,82.4c-3.88,0-7.21-.83-10.01-2.5-2.79-1.67-4.95-4.02-6.46-7.05-1.51-3.03-2.27-6.59-2.27-10.67s.76-7.59,2.27-10.66c1.51-3.08,3.63-5.48,6.36-7.2,2.73-1.73,5.92-2.59,9.57-2.59,2.22,0,4.37.37,6.46,1.1,2.08.73,3.96,1.89,5.61,3.46,1.66,1.57,2.96,3.61,3.92,6.11s1.44,5.54,1.44,9.11v2.72h-31.29v-5.74h23.78c0-2.02-.41-3.81-1.23-5.37-.82-1.56-1.97-2.8-3.45-3.7-1.48-.91-3.21-1.36-5.19-1.36-2.15,0-4.03.53-5.63,1.58s-2.83,2.42-3.69,4.1c-.86,1.68-1.29,3.51-1.29,5.47v4.48c0,2.63.46,4.87,1.4,6.71.93,1.85,2.23,3.25,3.91,4.22,1.67.97,3.63,1.45,5.87,1.45,1.45,0,2.78-.21,3.97-.63,1.2-.42,2.23-1.05,3.1-1.88.87-.84,1.54-1.87,2-3.1l7.25,1.31c-.58,2.14-1.62,4-3.11,5.6-1.5,1.6-3.37,2.84-5.61,3.72s-4.81,1.32-7.68,1.32Z" />
    <path
        d="M404.74,51.85l-6.95,1.23c-.29-.89-.75-1.73-1.37-2.54-.62-.8-1.47-1.46-2.52-1.97-1.06-.51-2.38-.77-3.97-.77-2.17,0-3.98.48-5.43,1.45-1.45.97-2.18,2.21-2.18,3.73,0,1.32.49,2.38,1.46,3.18.97.8,2.55,1.46,4.72,1.97l6.25,1.44c3.62.84,6.32,2.13,8.1,3.87,1.78,1.74,2.67,4.01,2.67,6.79,0,2.36-.68,4.46-2.04,6.29-1.36,1.84-3.25,3.28-5.66,4.32-2.42,1.04-5.22,1.56-8.39,1.56-4.41,0-8-.94-10.79-2.83-2.79-1.89-4.49-4.57-5.13-8.06l7.41-1.13c.46,1.93,1.41,3.39,2.84,4.37,1.44.98,3.31,1.47,5.61,1.47,2.51,0,4.52-.53,6.02-1.58,1.5-1.05,2.26-2.34,2.26-3.86,0-1.23-.46-2.26-1.37-3.1-.91-.84-2.31-1.47-4.19-1.9l-6.66-1.46c-3.67-.84-6.39-2.17-8.14-4-1.75-1.83-2.63-4.14-2.63-6.95,0-2.32.65-4.36,1.95-6.1,1.3-1.74,3.09-3.11,5.38-4.09s4.91-1.47,7.87-1.47c4.25,0,7.6.92,10.05,2.75,2.44,1.84,4.06,4.29,4.84,7.37Z" />
    <path
        d="M443.42,51.85l-6.95,1.23c-.29-.89-.75-1.73-1.37-2.54-.62-.8-1.46-1.46-2.52-1.97s-2.38-.77-3.97-.77c-2.17,0-3.98.48-5.43,1.45s-2.18,2.21-2.18,3.73c0,1.32.49,2.38,1.46,3.18.97.8,2.55,1.46,4.72,1.97l6.25,1.44c3.62.84,6.32,2.13,8.1,3.87,1.78,1.74,2.67,4.01,2.67,6.79,0,2.36-.68,4.46-2.04,6.29-1.36,1.84-3.25,3.28-5.66,4.32-2.42,1.04-5.21,1.56-8.39,1.56-4.41,0-8-.94-10.79-2.83-2.79-1.89-4.49-4.57-5.13-8.06l7.41-1.13c.46,1.93,1.41,3.39,2.84,4.37,1.43.98,3.31,1.47,5.61,1.47,2.51,0,4.52-.53,6.02-1.58,1.5-1.05,2.26-2.34,2.26-3.86,0-1.23-.46-2.26-1.37-3.1-.91-.84-2.31-1.47-4.19-1.9l-6.66-1.46c-3.67-.84-6.39-2.17-8.14-4-1.75-1.83-2.63-4.14-2.63-6.95,0-2.32.65-4.36,1.95-6.1,1.3-1.74,3.09-3.11,5.38-4.09,2.29-.98,4.91-1.47,7.87-1.47,4.25,0,7.6.92,10.05,2.75,2.44,1.84,4.06,4.29,4.84,7.37Z" />
</svg>
