<svg xmlns="http://www.w3.org/2000/svg" viewBox="0 0 444.6 118.2"><path d="M56.5 16.9h14.1l-2 12h1.2c1.1-1.5 2.5-3.3 4.4-5.3 1.9-2 4.4-3.8 7.5-5.3 3.1-1.5 6.9-2.3 11.5-2.3s11 1.5 15.2 4.5c4.2 3 7.1 7.4 8.9 13.1.3.9.5 1.9.7 2.8V12C118 5.5 112.7.2 106.2.2H28l-2.8 16.7h15.2l-1.9 11.6H23.2l-6.8 40.7c-.5 2.8-.4 4.9.2 6.3.6 1.4 1.5 2.3 2.8 2.8 1.3.5 2.7.7 4.3.7s2.2 0 3-.2c.9-.2 1.6-.3 2.1-.4l.7 11.9c-.9.3-2.2.7-3.8 1-1.6.3-3.6.5-5.9.6-3.8 0-7.2-.6-10.2-2-3-1.4-5.3-3.6-6.8-6.6-1.5-3-1.9-6.7-1.2-11.1l7.2-43.7H.2v77.8c0 6.5 5.3 11.8 11.8 11.8h27.6L56.5 16.9ZM10.9 16.9 13.6.2h-1.7C5.4.2.2 5.5.2 12v5h10.7Z"/><path d="M118 54.1c-1.3 8-3.8 14.9-7.4 20.6-3.6 5.7-8 10.1-13.2 13.2-5.2 3.1-10.7 4.6-16.7 4.6s-8-.8-10.7-2.3c-2.6-1.5-4.5-3.3-5.8-5.3-1.3-2-2.2-3.8-2.8-5.4h-.9L54 118.2h52.2c6.5 0 11.8-5.3 11.8-11.8V53.7v.5Z"/><path d="M98.4 31.6c-2.5-2.2-5.9-3.4-10.3-3.4s-7.9 1.1-11.2 3.2c-3.3 2.2-5.9 5.2-8 9-2.1 3.9-3.6 8.4-4.4 13.5-.8 5.2-.8 9.8 0 13.7.8 3.9 2.5 7 5 9.2 2.5 2.2 5.9 3.3 10 3.3s8.1-1.1 11.3-3.4c3.2-2.3 5.9-5.4 8.1-9.4 2.1-4 3.6-8.4 4.5-13.3.8-4.9.7-9.3 0-13.2-.8-3.9-2.5-7-5-9.2ZM176.7 42.4v6.2h-21.5v-6.2h21.5ZM161 33h7.7v37.2c0 1.5.2 2.6.7 3.3s1 1.2 1.7 1.5 1.5.4 2.3.4 1.2 0 1.6-.1.8-.2 1.1-.2l1.4 6.3c-.4.2-1.1.3-1.9.5-.8.2-1.8.3-3.1.3-2 0-3.9-.3-5.6-1.1-1.7-.8-3.2-1.9-4.2-3.5-1.1-1.6-1.6-3.5-1.6-5.9V32.9ZM196.6 82.7c-2.5 0-4.8-.5-6.8-1.4s-3.6-2.3-4.8-4.1-1.8-4-1.8-6.5.4-4 1.3-5.5c.9-1.4 2-2.6 3.5-3.4 1.5-.8 3.1-1.5 4.9-1.9 1.8-.4 3.6-.8 5.5-1 2.4-.3 4.3-.5 5.7-.7 1.5-.2 2.5-.5 3.2-.9s1-1.1 1-2v-.2c0-2.2-.6-4-1.9-5.2-1.3-1.2-3.1-1.8-5.6-1.8s-4.6.6-6.1 1.7-2.5 2.4-3.1 3.8l-7.2-1.6c.9-2.4 2.1-4.3 3.8-5.8s3.5-2.6 5.7-3.2c2.2-.7 4.4-1 6.8-1s3.2.2 5 .6c1.8.4 3.4 1 5 2 1.5 1 2.8 2.4 3.8 4.2 1 1.8 1.5 4.1 1.5 7v26.1h-7.5v-5.4h-.3c-.5 1-1.2 2-2.2 2.9-1 1-2.3 1.8-3.8 2.4-1.6.6-3.4.9-5.6.9Zm1.7-6.2c2.1 0 3.9-.4 5.4-1.3 1.5-.8 2.7-1.9 3.5-3.3s1.2-2.8 1.2-4.4v-5.1c-.3.3-.8.5-1.6.8s-1.7.4-2.7.6c-1 .2-2 .3-2.9.4-.9.1-1.7.2-2.4.3-1.5.2-2.8.5-4.1.9-1.2.4-2.2 1.1-2.9 1.9-.7.8-1.1 1.9-1.1 3.3s.7 3.3 2.1 4.3c1.4 1 3.2 1.4 5.4 1.4ZM230.1 36.4c-1.3 0-2.5-.4-3.4-1.3s-1.4-2-1.4-3.2.5-2.3 1.4-3.2 2.1-1.3 3.4-1.3 2.5.4 3.4 1.3 1.4 2 1.4 3.2-.5 2.3-1.4 3.2-2.1 1.3-3.4 1.3Zm-3.9 45.4V42.4h7.7v39.4h-7.7ZM251.9 29.3v52.5h-7.7V29.3h7.7ZM262.2 96.6V42.5h7.5v6.4h.6c.4-.8 1.1-1.8 1.9-2.8.8-1.1 2-2 3.5-2.8s3.5-1.2 5.9-1.2 6 .8 8.5 2.4c2.5 1.6 4.5 3.9 5.9 6.9 1.4 3 2.1 6.7 2.1 10.9s-.7 7.9-2.1 10.9c-1.4 3-3.4 5.4-5.8 7-2.5 1.6-5.3 2.4-8.5 2.4s-4.3-.4-5.9-1.2c-1.5-.8-2.7-1.7-3.5-2.8-.9-1.1-1.5-2-2-2.9h-.5v20.9h-7.7Zm7.5-34.5c0 2.8.4 5.2 1.2 7.3.8 2.1 2 3.7 3.5 4.9 1.5 1.2 3.4 1.8 5.6 1.8s4.2-.6 5.7-1.8 2.7-2.9 3.5-5 1.2-4.5 1.2-7.1-.4-4.9-1.2-7-1.9-3.7-3.5-4.9c-1.5-1.2-3.5-1.8-5.8-1.8s-4.1.6-5.6 1.7-2.7 2.7-3.5 4.8c-.8 2.1-1.2 4.4-1.2 7.2ZM306.7 81.8V42.4h7.4v6.3h.4c.7-2.1 2-3.8 3.8-5 1.8-1.2 3.9-1.8 6.2-1.8h1.7c.7 0 1.2 0 1.6.1v7.3c-.3 0-.9-.2-1.6-.3-.8-.1-1.6-.2-2.4-.2-1.8 0-3.4.4-4.8 1.1-1.4.8-2.5 1.8-3.3 3.2s-1.2 2.9-1.2 4.6v24h-7.7ZM350 82.6c-3.9 0-7.2-.8-10-2.5s-4.9-4-6.5-7c-1.5-3-2.3-6.6-2.3-10.7s.8-7.6 2.3-10.7c1.5-3.1 3.6-5.5 6.4-7.2 2.7-1.7 5.9-2.6 9.6-2.6s4.4.4 6.5 1.1c2.1.7 4 1.9 5.6 3.5 1.7 1.6 3 3.6 3.9 6.1s1.4 5.5 1.4 9.1v2.7h-31.3v-5.7h23.8c0-2-.4-3.8-1.2-5.4-.8-1.6-2-2.8-3.4-3.7-1.5-.9-3.2-1.4-5.2-1.4s-4 .5-5.6 1.6-2.8 2.4-3.7 4.1c-.9 1.7-1.3 3.5-1.3 5.5v4.5c0 2.6.5 4.9 1.4 6.7.9 1.8 2.2 3.3 3.9 4.2 1.7 1 3.6 1.4 5.9 1.4s2.8-.2 4-.6c1.2-.4 2.2-1 3.1-1.9.9-.8 1.5-1.9 2-3.1l7.3 1.3c-.6 2.1-1.6 4-3.1 5.6-1.5 1.6-3.4 2.8-5.6 3.7s-4.8 1.3-7.7 1.3ZM404.9 52l-6.9 1.2c-.3-.9-.7-1.7-1.4-2.5-.6-.8-1.5-1.5-2.5-2-1.1-.5-2.4-.8-4-.8s-4 .5-5.4 1.4c-1.5 1-2.2 2.2-2.2 3.7s.5 2.4 1.5 3.2c1 .8 2.5 1.5 4.7 2l6.3 1.4c3.6.8 6.3 2.1 8.1 3.9 1.8 1.7 2.7 4 2.7 6.8s-.7 4.5-2 6.3c-1.4 1.8-3.2 3.3-5.7 4.3-2.4 1-5.2 1.6-8.4 1.6s-8-.9-10.8-2.8c-2.8-1.9-4.5-4.6-5.1-8.1l7.4-1.1c.5 1.9 1.4 3.4 2.8 4.4 1.4 1 3.3 1.5 5.6 1.5s4.5-.5 6-1.6 2.3-2.3 2.3-3.9-.5-2.3-1.4-3.1c-.9-.8-2.3-1.5-4.2-1.9l-6.7-1.5c-3.7-.8-6.4-2.2-8.1-4-1.8-1.8-2.6-4.1-2.6-6.9s.6-4.4 1.9-6.1c1.3-1.7 3.1-3.1 5.4-4.1s4.9-1.5 7.9-1.5c4.3 0 7.6.9 10 2.8 2.4 1.8 4.1 4.3 4.8 7.4ZM443.6 52l-6.9 1.2c-.3-.9-.7-1.7-1.4-2.5-.6-.8-1.5-1.5-2.5-2s-2.4-.8-4-.8-4 .5-5.4 1.4-2.2 2.2-2.2 3.7.5 2.4 1.5 3.2c1 .8 2.5 1.5 4.7 2l6.3 1.4c3.6.8 6.3 2.1 8.1 3.9 1.8 1.7 2.7 4 2.7 6.8s-.7 4.5-2 6.3c-1.4 1.8-3.2 3.3-5.7 4.3-2.4 1-5.2 1.6-8.4 1.6s-8-.9-10.8-2.8c-2.8-1.9-4.5-4.6-5.1-8.1l7.4-1.1c.5 1.9 1.4 3.4 2.8 4.4 1.4 1 3.3 1.5 5.6 1.5s4.5-.5 6-1.6 2.3-2.3 2.3-3.9-.5-2.3-1.4-3.1c-.9-.8-2.3-1.5-4.2-1.9l-6.7-1.5c-3.7-.8-6.4-2.2-8.1-4-1.8-1.8-2.6-4.1-2.6-6.9s.6-4.4 1.9-6.1c1.3-1.7 3.1-3.1 5.4-4.1 2.3-1 4.9-1.5 7.9-1.5 4.3 0 7.6.9 10 2.8 2.4 1.8 4.1 4.3 4.8 7.4Z"/></svg>
